<svg width="43" height="43" viewBox="0 0 43 43" fill="none" xmlns="http://www.w3.org/2000/svg">
<path d="M3.28571 1.28571C2.18114 1.28571 1.28571 2.18114 1.28571 3.28571V39.2857C1.28571 40.3903 2.18114 41.2857 3.28571 41.2857H39.2857C40.3903 41.2857 41.2857 40.3903 41.2857 39.2857V3.28571C41.2857 2.18114 40.3903 1.28571 39.2857 1.28571H3.28571Z" fill="#ABDB51"/>
<mask id="mask0" mask-type="alpha" maskUnits="userSpaceOnUse" x="0" y="0" width="43" height="43">
<path fill-rule="evenodd" clip-rule="evenodd" d="M2.28571 0.285706C1.18114 0.285706 0.285706 1.18114 0.285706 2.28571V40.7143C0.285706 41.8189 1.18114 42.7143 2.28571 42.7143H40.7143C41.8188 42.7143 42.7143 41.8189 42.7143 40.7143V2.28571C42.7143 1.18114 41.8188 0.285706 40.7143 0.285706H2.28571ZM1.28571 3.28571C1.28571 2.18114 2.18114 1.28571 3.28571 1.28571H39.2857C40.3903 1.28571 41.2857 2.18114 41.2857 3.28571V39.2857C41.2857 40.3903 40.3903 41.2857 39.2857 41.2857H3.28571C2.18114 41.2857 1.28571 40.3903 1.28571 39.2857V3.28571Z" fill="white"/>
</mask>
<g mask="url(#mask0)">
<rect x="0.285706" y="0.285706" width="42.4286" height="42.4286" fill="#ABDB51"/>
</g>
<path fill-rule="evenodd" clip-rule="evenodd" d="M23.0429 15.4571C23.4335 15.0666 24.0666 15.0666 24.4572 15.4571L24.63 15.6299C25.0202 16.0201 25.0205 16.6527 24.6307 17.0434L20.1838 21.5L24.6307 25.9566C25.0205 26.3473 25.0202 26.9799 24.63 27.3701L24.4572 27.5429C24.0666 27.9334 23.4335 27.9334 23.0429 27.5429L17.0001 21.5L23.0429 15.4571Z" fill="#424B5A"/>
<mask id="mask1" mask-type="alpha" maskUnits="userSpaceOnUse" x="17" y="15" width="8" height="13">
<path fill-rule="evenodd" clip-rule="evenodd" d="M23.0429 15.4571C23.4335 15.0666 24.0666 15.0666 24.4572 15.4571L24.63 15.6299C25.0202 16.0201 25.0205 16.6527 24.6307 17.0434L20.1838 21.5L24.6307 25.9566C25.0205 26.3473 25.0202 26.9799 24.63 27.3701L24.4572 27.5429C24.0666 27.9334 23.4335 27.9334 23.0429 27.5429L17.0001 21.5L23.0429 15.4571Z" fill="white"/>
</mask>
<g mask="url(#mask1)">
<rect x="8" y="8" width="27" height="27" fill="#424B5A"/>
<rect x="8" y="8" width="27" height="27" fill="white"/>
</g>
</svg>
