<svg width="43" height="43" viewBox="0 0 43 43" fill="none" xmlns="http://www.w3.org/2000/svg">
<rect x="1" y="1" width="41" height="41" rx="1" stroke="#F2BC38" stroke-width="2"/>
<path fill-rule="evenodd" clip-rule="evenodd" d="M26.7929 23.4597C27.1834 23.8503 27.1834 24.4834 26.7929 24.8739L26.6788 24.988C26.2886 25.3782 25.656 25.3786 25.2654 24.9888L21 20.7327L16.7346 24.9888C16.344 25.3786 15.7114 25.3782 15.3212 24.988L15.2071 24.8739C14.8166 24.4834 14.8166 23.8503 15.2071 23.4597L21 17.6668L26.7929 23.4597Z" fill="#424B5A"/>
<mask id="mask0" mask-type="alpha" maskUnits="userSpaceOnUse" x="14" y="17" width="14" height="9">
<path fill-rule="evenodd" clip-rule="evenodd" d="M26.7929 23.4597C27.1834 23.8503 27.1834 24.4834 26.7929 24.8739L26.6788 24.988C26.2886 25.3782 25.656 25.3786 25.2654 24.9888L21 20.7327L16.7346 24.9888C16.344 25.3786 15.7114 25.3782 15.3212 24.988L15.2071 24.8739C14.8166 24.4834 14.8166 23.8503 15.2071 23.4597L21 17.6668L26.7929 23.4597Z" fill="white"/>
</mask>
<g mask="url(#mask0)">
<rect x="34" y="9" width="26" height="26" transform="rotate(90 34 9)" fill="#424B5A"/>
<rect x="33" y="8" width="27" height="27" transform="rotate(90 33 8)" fill="#F2BC38"/>
</g>
</svg>
